HIERARCHY
ROOT ui
{
	 OFFSET 0 0 0
	 CHANNELS 3 XPosition YPosition Z Position
	 EndSite
	 {
	 OFFSET 0 -1 0
	 }
}
ROOT li
{
	 OFFSET 0 0 0
	 CHANNELS 3 XPosition YPosition Z Position
	 EndSite
	 {
	 OFFSET 0 -1 0
	 }
}
ROOT ul
{
	 OFFSET 0 0 0
	 CHANNELS 3 XPosition YPosition Z Position
	 EndSite
	 {
	 OFFSET 0 -1 0
	 }
}
ROOT ll
{
	 OFFSET 0 0 0
	 CHANNELS 3 XPosition YPosition Z Position
	 EndSite
	 {
	 OFFSET 0 -1 0
	 }
}
ROOT tt
{
	 OFFSET 0 0 0
	 CHANNELS 3 XPosition YPosition Z Position
	 EndSite
	 {
	 OFFSET 0 -1 0
	 }
}
ROOT tb
{
	 OFFSET 0 0 0
	 CHANNELS 3 XPosition YPosition Z Position
	 EndSite
	 {
	 OFFSET 0 -1 0
	 }
}
ROOT td
{
	 OFFSET 0 0 0
	 CHANNELS 3 XPosition YPosition Z Position
	 EndSite
	 {
	 OFFSET 0 -1 0
	 }
}
ROOT v
{
	 OFFSET 0 0 0
	 CHANNELS 3 XPosition YPosition Z Position
	 EndSite
	 {
	 OFFSET 0 -1 0
	 }
}
ROOT bn
{
	 OFFSET 0 0 0
	 CHANNELS 3 XPosition YPosition Z Position
	 EndSite
	 {
	 OFFSET 0 -1 0
	 }
}
MOTION
Frames: 13
Frame Time: 0.002
0.012734888076782226	-0.0023710908889770506	0		0.45911972045898436	-2.30566552734375	0		-0.9709297485351562	0.250879638671875	0		-0.47656817626953124	-2.693893798828125	0		1.667326416015625	-0.5859384155273437	0		3.0318603515625	0.10327491760253907	0		4.43337255859375	0.36412200927734373	0		6.005134765625	0.44032662963867186	0		-0.2556066741943359	5.9244111328125	0		
-0.009122288703918457	6.811079978942871E-4	0		0.46123471069335936	-2.30384228515625	0		-1.0037750854492187	0.2550426330566406	0		-0.4853804626464844	-2.68396044921875	0		1.641502685546875	-0.5788612670898438	0		3.03808740234375	0.11504070281982422	0		4.41768701171875	0.38508364868164063	0		6.00521630859375	0.4399805908203125	0		-0.25446711730957033	5.9222490234375	0		
0.012986409187316894	-0.0026981120109558104	0		0.4863079528808594	-2.308255126953125	0		-0.969748779296875	0.2425620574951172	0		-0.4852727355957031	-2.68412744140625	0		1.6355589599609375	-0.5869953002929688	0		3.0382265625	0.11483415222167968	0		4.4240263671875	0.40580416870117186	0		6.00531494140625	0.43956478881835936	0		-0.2552437744140625	5.9240888671875	0		
-0.012848576545715333	-0.002643296957015991	0		0.4594578247070312	-2.30619775390625	0		-0.969581298828125	0.2423862762451172	0		-0.44815008544921875	-2.6846591796875	0		1.6286485595703124	-0.5941432495117187	0		2.993469482421875	0.12302306365966797	0		4.41938525390625	0.4255950317382812	0		6.01033642578125	0.4164784545898437	0		-0.29004742431640623	5.91823291015625	0		
0.013341625213623047	-0.003095616102218628	0		0.488606201171875	-2.30668701171875	0		-1.002355712890625	0.24550837707519532	0		-0.5139193115234375	-2.675235107421875	0		1.628697021484375	-0.6083790893554688	0		3.006596435546875	0.11563941192626953	0		4.39684033203125	0.4525240783691406	0		6.0226513671875	0.42949246215820314	0		-0.23762841796875	5.93053955078125	0		
-0.008408788681030274	-1.1029499769210815E-4	0		0.46584478759765624	-2.29970263671875	0		-0.9821405639648437	0.2441178741455078	0		-0.45977719116210936	-2.677957763671875	0		1.6488939208984374	-0.609825439453125	0		3.0231025390625	0.1452002716064453	0		4.4083349609375	0.48010284423828126	0		6.02153076171875	0.4669756774902344	0		-0.2723185424804688	5.9266533203125	0		
0.024906108856201172	0.006340182781219482	0		0.4950379333496094	-2.300225341796875	0		-0.9768469848632813	0.24785771179199217	0		-0.46849658203125	-2.668097900390625	0		1.6400157470703125	-0.6220155639648437	0		2.977253662109375	0.13432810974121093	0		4.39278662109375	0.4999111328125	0		6.01948828125	0.4456038513183594	0		-0.23985107421875	5.93411962890625	0		
-0.011907958984375	-0.003556180000305176	0		0.48228457641601563	-2.29736328125	0		-0.9486384887695313	0.2393695526123047	0		-0.4812312622070313	-2.662210205078125	0		1.6372498779296876	-0.6252791748046875	0		2.995602294921875	0.1408282928466797	0		4.38827978515625	0.520591552734375	0		6.021908203125	0.46560235595703126	0		-0.27346804809570313	5.92820166015625	0		
0.014397415161132812	-0.004062894821166992	0		0.491447021484375	-2.3057216796875	0		-0.9483248291015625	0.23913853454589845	0		-0.46806060791015625	-2.66857861328125	0		1.6314620361328125	-0.6335284423828125	0		2.9848564453125	0.1345867919921875	0		4.3887255859375	0.5332033081054688	0		6.02212744140625	0.4648464660644531	0		-0.28809173583984377	5.9170947265625	0		
-0.011270374298095702	-0.004082081794738769	0		0.4647354736328125	-2.30274658203125	0		-0.98002294921875	0.23520733642578126	0		-0.457890625	-2.676927001953125	0		1.6336773681640624	-0.6438662719726562	0		2.998315673828125	0.14709986877441406	0		4.37733251953125	0.5599109497070313	0		6.03090234375	0.4586638488769531	0		-0.2724694519042969	5.92769189453125	0		
0.010119215965270996	-5.578979849815369E-4	0		0.4670305480957031	-2.301055419921875	0		-0.9746343383789062	0.23791744995117187	0		-0.49746185302734375	-2.659802490234375	0		1.657891845703125	-0.6564246826171874	0		2.970549072265625	0.13399604797363282	0		4.3739052734375	0.5805292358398437	0		6.0226162109375	0.46323025512695315	0		-0.2378647003173828	5.933099609375	0		
5.4721599817276E-4	0.005260445117950439	0		0.49632049560546876	-2.301628662109375	0		-0.9742565307617187	0.2376731719970703	0		-0.4492718505859375	-2.669525390625	0		1.6521719970703126	-0.6637005004882812	0		3.008037353515625	0.14525990295410157	0		4.37035302734375	0.5861409912109375	0		6.02722802734375	0.47959152221679685	0		-0.27134912109375	5.927158203125	0		
0.01583259105682373	-0.005161841869354248	0		0.4676256103515625	-2.301642333984375	0		-0.9738656616210938	0.2374290313720703	0		-0.4619219970703125	-2.663662109375	0		1.65443505859375	-0.6740535888671875	0		2.9823681640625	0.13913117980957032	0		4.37089111328125	0.5997129516601563	0		6.03099853515625	0.4613681335449219	0		-0.23670674133300781	5.932560546875	0		
